<svg width="10" height="10" viewBox="0 0 10 10" fill="none" xmlns="http://www.w3.org/2000/svg">
<path d="M1.86879 8.78997C1.86862 8.69394 1.88741 8.59882 1.92408 8.51007C1.96075 8.42132 2.01459 8.34068 2.08249 8.27277C2.15039 8.20487 2.23103 8.15104 2.31978 8.11437C2.40854 8.07769 2.50366 8.0589 2.59969 8.05907L7.02722 8.05907L0.707084 1.73893C0.570251 1.6021 0.49338 1.41651 0.49338 1.223C0.49338 1.02949 0.570252 0.843906 0.707085 0.707073C0.843918 0.57024 1.0295 0.493368 1.22301 0.493368C1.41653 0.493368 1.60211 0.57024 1.73894 0.707073L8.05908 7.02721L8.05994 2.59881C8.05994 2.40497 8.13695 2.21906 8.27402 2.08199C8.41109 1.94492 8.59699 1.86791 8.79084 1.86791C8.98469 1.86791 9.1706 1.94492 9.30767 2.08199C9.44474 2.21906 9.52174 2.40497 9.52174 2.59881L9.52174 8.78997C9.52191 8.886 9.50312 8.98112 9.46644 9.06987C9.42977 9.15862 9.37594 9.23926 9.30804 9.30717C9.24013 9.37507 9.15949 9.4289 9.07074 9.46557C8.98199 9.50224 8.88687 9.52104 8.79084 9.52087L2.59969 9.52087C2.50366 9.52104 2.40854 9.50225 2.31978 9.46557C2.23103 9.4289 2.15039 9.37507 2.08249 9.30717C2.01459 9.23926 1.96075 9.15862 1.92408 9.06987C1.88741 8.98112 1.86862 8.886 1.86879 8.78997Z" fill="#EE7C85"/>
</svg>
